<?xml version="1.0" encoding="iso-8859-1"?>
<!-- Generator: Adobe Illustrator 18.0.0, SVG Export Plug-In . SVG Version: 6.00 Build 0)  -->
<!DOCTYPE svg PUBLIC "-//W3C//DTD SVG 1.1//EN" "http://www.w3.org/Graphics/SVG/1.1/DTD/svg11.dtd">
<svg width="1em" height="1em" version="1.1" id="Capa_1" xmlns="http://www.w3.org/2000/svg" xmlns:xlink="http://www.w3.org/1999/xlink" x="0px" y="0px"
	 viewBox="0 0 493.655 493.655" style="enable-background:new 0 0 493.655 493.655;" xml:space="preserve">
<path d="M358.348,0H169.02c-17.635,0-34.914,5.029-49.806,14.496L62.075,50.836c-8.501,5.402-13.644,14.779-13.644,24.854v380.285
	c0,20.808,16.872,37.68,37.688,37.68h283.423c10.058,0,19.434-5.144,24.838-13.628l36.309-56.993
	c9.491-14.9,14.536-32.203,14.536-49.87V86.868C445.224,38.969,406.238,0,358.348,0z M271.228,250.003h-23.88v132.903
	c0,18.349-14.879,33.225-33.227,33.225c-18.349,0-33.225-14.876-33.225-33.225V250.003h-23.881
	c-18.349,0-33.226-14.877-33.226-33.226c0-18.349,14.876-33.225,33.226-33.225h23.881v-26.996c0-18.349,14.876-33.226,33.225-33.226
	c18.348,0,33.227,14.877,33.227,33.226v26.996h23.88c18.347,0,33.227,14.876,33.227,33.225
	C304.455,235.126,289.575,250.003,271.228,250.003z M405.541,371.963c0,10.935-3.099,21.65-8.955,30.89l-10.885,17.195V97.211
	c0-20.815-16.872-37.687-37.688-37.687H121.046l18.268-11.259c9.118-5.614,19.599-8.583,30.29-8.583h188.744
	c26.022,0,47.193,21.164,47.193,47.186V371.963z"/>
<g>
</g>
<g>
</g>
<g>
</g>
<g>
</g>
<g>
</g>
<g>
</g>
<g>
</g>
<g>
</g>
<g>
</g>
<g>
</g>
<g>
</g>
<g>
</g>
<g>
</g>
<g>
</g>
<g>
</g>
</svg>
