<svg fill="#ffffff" width="2em" height="2em" id="Capa_1" enable-background="new 0 0 512.389 512.389" viewBox="0 0 512.389 512.389" xmlns="http://www.w3.org/2000/svg"><g><path d="m115.387 47.917h28.246c.351 0 .636.285.636.635v41.541c0 4.143 3.357 7.5 7.5 7.5s7.5-3.357 7.5-7.5v-41.542c0-8.621-7.014-15.635-15.636-15.635h-28.246c-4.143 0-7.5 3.357-7.5 7.5s3.357 7.501 7.5 7.501z"/><path d="m73.635 65.258c13.698 0 24.842-11.144 24.842-24.842s-11.144-24.842-24.842-24.842-24.842 11.144-24.842 24.843 11.144 24.841 24.842 24.841zm0-34.684c5.427 0 9.842 4.415 9.842 9.843 0 5.427-4.415 9.842-9.842 9.842s-9.842-4.415-9.842-9.842c0-5.428 4.415-9.843 9.842-9.843z"/><path d="m125.729 170.327h66.066c4.143 0 7.5-3.357 7.5-7.5s-3.357-7.5-7.5-7.5h-66.066c-4.143 0-7.5 3.357-7.5 7.5s3.357 7.5 7.5 7.5z"/><path d="m125.729 202.914h89.432c4.143 0 7.5-3.357 7.5-7.5s-3.357-7.5-7.5-7.5h-89.432c-4.143 0-7.5 3.357-7.5 7.5s3.357 7.5 7.5 7.5z"/><path d="m257.862 220.501h-132.133c-4.143 0-7.5 3.357-7.5 7.5s3.357 7.5 7.5 7.5h132.133c4.143 0 7.5-3.357 7.5-7.5s-3.358-7.5-7.5-7.5z"/><path d="m257.862 253.087h-132.133c-4.143 0-7.5 3.357-7.5 7.5s3.357 7.5 7.5 7.5h132.133c4.143 0 7.5-3.357 7.5-7.5s-3.358-7.5-7.5-7.5z"/><path d="m257.862 285.674h-132.133c-4.143 0-7.5 3.357-7.5 7.5s3.357 7.5 7.5 7.5h132.133c4.143 0 7.5-3.357 7.5-7.5s-3.358-7.5-7.5-7.5z"/><path d="m257.862 318.261h-132.133c-4.143 0-7.5 3.357-7.5 7.5s3.357 7.5 7.5 7.5h132.133c4.143 0 7.5-3.357 7.5-7.5s-3.358-7.5-7.5-7.5z"/><path d="m266.068 123.033c.104 0 .208 0 .312-.001 12.093-.08 23.43-4.865 31.924-13.473 8.493-8.607 13.127-20.008 13.047-32.1-.08-12.093-4.865-23.43-13.473-31.924-8.607-8.493-19.994-13.166-32.1-13.047-7.697.051-15.291 2.07-21.957 5.841-3.606 2.039-4.876 6.614-2.837 10.22 2.038 3.606 6.616 4.877 10.22 2.837 4.449-2.516 9.523-3.863 14.674-3.897 8.069-.086 15.708 3.045 21.464 8.724 5.756 5.68 8.955 13.261 9.009 21.347s-3.044 15.709-8.724 21.464c-5.68 5.756-13.261 8.955-21.347 9.009-.07.001-.14.001-.209.001-8.008 0-15.549-3.094-21.255-8.725-5.756-5.68-8.955-13.261-9.009-21.352-.01-1.277.063-2.567.215-3.834.492-4.113-2.443-7.846-6.556-8.339-4.108-.493-7.847 2.443-8.339 6.556-.226 1.893-.334 3.819-.32 5.722.08 12.093 4.865 23.431 13.473 31.924 8.534 8.421 19.811 13.047 31.788 13.047z"/><path d="m487.217 224.14c-13.698 0-24.842 11.145-24.842 24.843s11.144 24.842 24.842 24.842 24.842-11.144 24.842-24.842-11.144-24.843-24.842-24.843zm0 34.685c-5.427 0-9.842-4.415-9.842-9.842 0-5.428 4.415-9.843 9.842-9.843s9.842 4.415 9.842 9.843c0 5.427-4.415 9.842-9.842 9.842z"/><path d="m207.511 403.232h25.689c4.143 0 7.5-3.357 7.5-7.5s-3.357-7.5-7.5-7.5h-25.689c-4.143 0-7.5 3.357-7.5 7.5s3.357 7.5 7.5 7.5z"/><path d="m443.623 241.483h-3.242v-79.867c0-9.865-8.026-17.892-17.892-17.892h-115.247c22.791-14.254 36.771-39.555 36.592-66.48-.14-20.975-8.495-40.583-23.529-55.212-15.03-14.627-34.85-22.483-55.85-22.012-42.653.878-76.803 36.313-76.125 78.989.173 10.895 2.678 21.49 7.128 31.154h-93.344c-10.276 0-18.638 8.36-18.638 18.638v14.923h-65.254c-9.865 0-17.892 8.026-17.892 17.892v248.534.002c0 2.102.384 4.112 1.053 5.988 2.471 6.924 9.076 11.902 16.838 11.902h137.013v20.294c0 .041 0 .083.001.124.34 20.47-8.778 40.813-12.898 48.93h-19.723c-4.143 0-7.5 3.357-7.5 7.5s3.357 7.5 7.5 7.5h24.208 147.066 24.209c4.143 0 7.5-3.357 7.5-7.5s-3.357-7.5-7.5-7.5h-19.732c-4.124-8.097-13.231-28.372-12.89-48.93.001-.041.001-.083.001-.124v-20.294h137.014c7.702 0 14.264-4.902 16.78-11.742.707-1.921 1.112-3.985 1.112-6.148v-.002-153.667h3.242c4.143 0 7.5-3.357 7.5-7.5s-3.358-7.5-7.501-7.5zm-222.214-207.73c5.865-5.957 12.91-10.737 20.627-13.956 7.312-3.05 15.03-4.602 22.729-4.741 16.5-.299 32.916 5.889 45.079 17.726 12.134 11.808 18.878 27.633 18.99 44.562.147 22.219-11.648 43.074-30.784 54.428-4.843 2.874-8.927 7.052-11.81 12.084l-19.497 34.028-19.948-33.767c-2.947-4.99-7.093-9.117-11.987-11.936-19.067-10.983-31.13-31.449-31.479-53.41-.267-16.73 6.347-33.102 18.08-45.018zm-122.932 95.048c0-2.006 1.632-3.638 3.638-3.638h102.399c6.144 8.002 13.85 14.855 22.809 20.016 2.656 1.53 4.925 3.801 6.559 6.566l20.751 35.126c2.563 4.339 7.088 6.92 12.119 6.92.033 0 .065 0 .098-.001 5.071-.033 9.604-2.681 12.126-7.081l6.139-10.714v115.033c0 4.143 3.357 7.5 7.5 7.5s7.5-3.357 7.5-7.5v-101.741h90.604c.858 0 1.583.933 1.583 2.036v50.16h-69.537c-4.143 0-7.5 3.357-7.5 7.5s3.357 7.5 7.5 7.5h69.535v106.94h-92.187v-37.662c0-4.143-3.357-7.5-7.5-7.5s-7.5 3.357-7.5 7.5v37.662h-186.636zm-83.147 32.815c0-1.595 1.297-2.892 2.892-2.892h65.255v15.563h-33.483c-9.144 0-16.583 7.643-16.583 17.036v172.101h-18.081zm68.147 27.671v174.137h-35.066v-172.101c0-1.104.725-2.036 1.583-2.036zm75.486 308.102c5.05-11.354 11.576-29.852 11.271-49.114v-20.233h100.242v20.234c-.305 19.262 6.223 37.759 11.271 49.113zm266.418-87.239c0 .323-.065.629-.164.919-.387 1.141-1.458 1.97-2.732 1.97h-404.259c-1.273 0-2.345-.829-2.732-1.97-.098-.291-.164-.596-.164-.919v-31.727h410.051zm0-46.727h-18.081v-106.94h18.081zm0-121.94h-18.081v-50.16c0-9.394-7.439-17.036-16.583-17.036h-90.604v-15.563h122.377c1.595 0 2.892 1.297 2.892 2.892v79.867z"/></g></svg>